<svg xmlns="http://www.w3.org/2000/svg" width="800" height="200" viewBox="0 0 800 200"><rect width="100%" height="100%" fill="#6366F1"/><path fill="#E0E7FF" d="M160.685 97.49q0 2.02.54 3.63.55 1.6 1.56 2.72 1.01 1.11 2.45 1.71 1.43.59 3.23.59 1.81 0 3.24-.59 1.44-.6 2.44-1.71 1.01-1.12 1.55-2.72.54-1.61.54-3.63t-.54-3.63-1.55-2.73q-1-1.12-2.44-1.72-1.43-.59-3.24-.59-1.8 0-3.23.59-1.44.6-2.45 1.72t-1.56 2.73q-.54 1.61-.54 3.63m15.26 10.3 6.24 6.8h-3.77q-.82 0-1.47-.22-.66-.22-1.2-.82l-3.6-3.97q-.87.23-1.78.35t-1.9.12q-2.78 0-5.08-.94-2.29-.95-3.93-2.63t-2.55-3.98q-.9-2.31-.9-5.01t.9-5.01q.91-2.3 2.55-3.98 1.64-1.69 3.93-2.63 2.3-.94 5.08-.94 1.87 0 3.52.43t3.03 1.22 2.47 1.92q1.1 1.13 1.86 2.53.77 1.39 1.17 3.02.4 1.64.4 3.44 0 1.65-.34 3.15-.34 1.51-.98 2.82-.64 1.3-1.55 2.4-.92 1.1-2.1 1.93m14.15-7.29h7.82l-2.99-8.18q-.22-.54-.46-1.29t-.48-1.62q-.22.87-.46 1.63-.24.75-.46 1.31zm6.24-15.3 9.65 24.58h-3.53q-.6 0-.97-.3-.38-.3-.56-.74l-1.84-5.01h-10.18l-1.84 5.01q-.13.39-.52.72-.4.32-.97.32h-3.57l9.67-24.58zm25.63 15.3h7.82l-2.99-8.18q-.22-.54-.46-1.29t-.47-1.62q-.22.87-.46 1.63-.24.75-.46 1.31zm6.24-15.3 9.66 24.58h-3.54q-.59 0-.97-.3-.37-.3-.56-.74l-1.83-5.01h-10.19l-1.83 5.01q-.14.39-.53.72-.39.32-.97.32h-3.57l9.67-24.58zm15.18 7.9.29 1.38q.53-.53 1.12-.98.58-.45 1.24-.76.65-.32 1.4-.5.75-.17 1.63-.17 1.43 0 2.53.48 1.11.48 1.85 1.36t1.12 2.09q.38 1.22.38 2.68v11.1h-4.2v-11.1q0-1.6-.73-2.47-.73-.88-2.22-.88-1.09 0-2.04.49-.96.5-1.81 1.35v12.61h-4.19V92.34h2.56q.82 0 1.07.76m24.76 12.18v-2.95q-1.82.09-3.06.32-1.25.23-1.99.58-.75.36-1.07.84-.33.47-.33 1.03 0 1.11.66 1.59.65.47 1.71.47 1.29 0 2.23-.47.94-.46 1.85-1.41m-8.88-9.17-.75-1.34q3.01-2.76 7.25-2.76 1.53 0 2.73.51 1.21.5 2.04 1.39.84.89 1.27 2.13t.43 2.72v11.02h-1.9q-.6 0-.92-.18t-.51-.72l-.37-1.26q-.67.6-1.3 1.05-.62.45-1.3.75-.68.31-1.46.47-.77.16-1.71.16-1.1 0-2.04-.3-.93-.29-1.61-.89-.68-.59-1.06-1.48-.37-.88-.37-2.05 0-.67.22-1.32.22-.66.72-1.25.51-.6 1.3-1.12.8-.53 1.97-.92 1.16-.39 2.71-.64t3.54-.3v-1.02q0-1.75-.75-2.59t-2.16-.84q-1.02 0-1.69.24t-1.18.53q-.51.3-.93.54t-.93.24q-.44 0-.75-.23-.3-.23-.49-.54m16.97-11.59h4.2v25.26h-4.2zm20.87 7.82h3.37l-9.5 22.23q-.19.45-.49.68t-.91.23h-3.13l3.27-7.01-7.06-16.13h3.69q.5 0 .78.24.28.23.41.54l3.71 9.04q.19.46.31.92.13.46.25.94.15-.48.31-.95.15-.46.34-.92l3.5-9.03q.13-.34.45-.56.31-.22.7-.22m17.05 1.88-.95 1.52q-.17.27-.35.38-.19.11-.48.11-.31 0-.65-.17-.35-.17-.81-.38t-1.05-.38q-.58-.17-1.38-.17-1.24 0-1.95.52-.71.53-.71 1.38 0 .56.37.94.37.39.97.67.6.29 1.37.52.76.23 1.55.5.79.28 1.56.63.76.34 1.37.88.6.53.97 1.28.36.75.36 1.8 0 1.26-.45 2.33-.45 1.06-1.33 1.83-.89.77-2.19 1.21-1.3.43-3 .43-.9 0-1.76-.16t-1.65-.45-1.46-.68-1.18-.85l.97-1.6q.19-.29.44-.44.26-.15.65-.15t.74.22q.34.22.8.47.46.26 1.08.48t1.58.22q.74 0 1.28-.18.53-.18.88-.47.35-.28.51-.67.16-.38.16-.79 0-.61-.36-1-.37-.39-.97-.68t-1.38-.52q-.77-.23-1.58-.5t-1.58-.64q-.77-.36-1.38-.92-.6-.57-.96-1.38-.37-.82-.37-1.97 0-1.07.42-2.04.43-.97 1.25-1.69.83-.73 2.06-1.16t2.85-.43q1.8 0 3.28.59 1.48.6 2.46 1.56m9.17 15.83q-2.28 0-3.5-1.28-1.21-1.29-1.21-3.55v-9.74h-1.79q-.34 0-.57-.22-.24-.22-.24-.66v-1.67l2.8-.46.89-4.76q.08-.34.32-.52.24-.19.61-.19h2.18v5.49h4.66v2.99h-4.66v9.45q0 .82.4 1.28t1.09.46q.39 0 .66-.09.26-.1.46-.2.19-.1.35-.2.15-.09.3-.09.19 0 .31.09.12.1.25.28l1.26 2.04q-.92.77-2.11 1.16t-2.46.39m27.59-5.12-6.44-6.64q-1.36.88-1.98 2-.63 1.11-.63 2.38 0 .94.33 1.69.32.74.87 1.26.56.52 1.3.8.73.28 1.57.28 1.49 0 2.73-.46 1.25-.47 2.25-1.31m4.78-.49 5.15 5.34h-4.12q-.64 0-1.04-.15-.4-.16-.84-.65l-1.7-1.75q-1.62 1.33-3.63 2.07-2 .75-4.33.75-1.41 0-2.78-.48-1.37-.49-2.44-1.41-1.07-.91-1.72-2.21-.66-1.3-.66-2.94 0-1.15.37-2.18.38-1.03 1.04-1.91.66-.89 1.58-1.59.92-.71 2.01-1.22-.92-1.27-1.33-2.49-.41-1.21-.41-2.42 0-1.28.47-2.42.47-1.15 1.35-2 .89-.85 2.18-1.35t2.92-.5q1.5 0 2.68.45 1.18.46 2.02 1.23.85.76 1.33 1.75t.57 2.04l-2.67.56q-.75.15-1.09-.64-.15-.45-.4-.85-.24-.4-.58-.69-.34-.3-.8-.48t-1.06-.18q-.71 0-1.27.25-.56.24-.94.66-.39.42-.59.97-.21.55-.21 1.16 0 .51.11.99.1.48.34.95.23.48.62.98.38.5.94 1.08l6.53 6.78q.56-1.07.9-2.26t.44-2.41q.05-.39.27-.63t.62-.24h2.61q-.01 2.24-.64 4.28t-1.8 3.76m31.75-15.6h-10.91v7.27h9.21v3.66h-9.21v10.01h-4.59V85.2h15.5zm13.91 3.5h4.2v17.44h-2.57q-.83 0-1.05-.77l-.29-1.39q-1.07 1.09-2.37 1.76-1.29.67-3.04.67-1.43 0-2.52-.48-1.1-.49-1.85-1.37-.75-.89-1.13-2.1-.38-1.22-.38-2.68V92.34h4.2v11.08q0 1.6.74 2.48.74.87 2.22.87 1.08 0 2.04-.48.95-.49 1.8-1.34zm14.16 17.71q-2.28 0-3.49-1.28-1.22-1.29-1.22-3.55v-9.74h-1.79q-.34 0-.57-.22-.24-.22-.24-.66v-1.67l2.8-.46.89-4.76q.08-.34.32-.52.24-.19.61-.19h2.18v5.49h4.66v2.99h-4.66v9.45q0 .82.4 1.28t1.09.46q.4 0 .66-.09.26-.1.46-.2.19-.1.35-.2.15-.09.3-.09.19 0 .31.09.12.1.25.28l1.26 2.04q-.92.77-2.11 1.16t-2.46.39m17.66-17.71h4.2v17.44h-2.57q-.83 0-1.05-.77l-.29-1.39q-1.07 1.09-2.36 1.76t-3.05.67q-1.42 0-2.52-.48-1.1-.49-1.84-1.37-.75-.89-1.13-2.1-.39-1.22-.39-2.68V92.34h4.2v11.08q0 1.6.74 2.48.74.87 2.22.87 1.09 0 2.04-.48.95-.49 1.8-1.34zm12.05 1.05.26 1.97q.82-1.56 1.94-2.45 1.12-.9 2.65-.9 1.21 0 1.94.53l-.27 3.15q-.09.3-.25.43t-.43.13q-.26 0-.76-.09-.5-.08-.98-.08-.7 0-1.24.2-.54.21-.98.59-.43.38-.76.92-.33.55-.62 1.25v10.74h-4.2V92.34h2.46q.65 0 .9.23.26.23.34.82m12.3 5.66h7.92q0-.81-.23-1.54-.23-.72-.69-1.26-.46-.55-1.16-.86-.71-.32-1.65-.32-1.81 0-2.86 1.04t-1.33 2.94m10.71 2.54h-10.8q.1 1.34.48 2.32.37.97.98 1.61t1.46.95q.84.32 1.86.32t1.76-.24 1.29-.53.97-.52q.41-.24.81-.24.52 0 .78.39l1.2 1.53q-.69.81-1.56 1.37-.87.55-1.81.88t-1.92.47-1.9.14q-1.82 0-3.38-.61-1.56-.6-2.72-1.78-1.16-1.19-1.82-2.93t-.66-4.04q0-1.78.58-3.35.57-1.58 1.65-2.74t2.64-1.84q1.55-.68 3.51-.68 1.65 0 3.04.52 1.4.53 2.4 1.54t1.57 2.48.57 3.36q0 .95-.2 1.28-.21.34-.78.34m18.22-1.09h7.82l-2.99-8.18q-.22-.54-.46-1.29t-.48-1.62q-.22.87-.46 1.63-.23.75-.46 1.31zm6.24-15.3 9.65 24.58h-3.53q-.6 0-.97-.3t-.56-.74l-1.84-5.01h-10.18l-1.84 5.01q-.13.39-.52.72-.39.32-.97.32h-3.57l9.67-24.58zm22.37 7.14h4.2v17.44h-2.57q-.83 0-1.05-.77l-.29-1.39q-1.07 1.09-2.36 1.76-1.3.67-3.05.67-1.42 0-2.52-.48-1.1-.49-1.85-1.37-.74-.89-1.13-2.1-.38-1.22-.38-2.68V92.34h4.2v11.08q0 1.6.74 2.48.74.87 2.22.87 1.09 0 2.04-.48.95-.49 1.8-1.34zm14.16 17.71q-2.28 0-3.49-1.28-1.22-1.29-1.22-3.55v-9.74h-1.78q-.34 0-.58-.22t-.24-.66v-1.67l2.81-.46.88-4.76q.09-.34.32-.52.24-.19.62-.19h2.17v5.49h4.66v2.99h-4.66v9.45q0 .82.4 1.28t1.1.46q.39 0 .65-.09.27-.1.46-.2.2-.1.35-.2.15-.09.31-.09.18 0 .3.09.12.1.26.28l1.25 2.04q-.91.77-2.1 1.16t-2.47.39m14.55-17.98q1.94 0 3.53.62 1.59.63 2.72 1.79t1.74 2.82q.62 1.67.62 3.72 0 2.08-.62 3.74-.61 1.67-1.74 2.84-1.13 1.18-2.72 1.81t-3.53.63q-1.95 0-3.55-.63t-2.73-1.81q-1.13-1.17-1.75-2.84-.62-1.66-.62-3.74 0-2.05.62-3.72.62-1.66 1.75-2.82t2.73-1.79q1.6-.62 3.55-.62m0 14.73q2.18 0 3.23-1.46 1.04-1.46 1.04-4.28t-1.04-4.3q-1.05-1.48-3.23-1.48-2.21 0-3.27 1.49-1.06 1.48-1.06 4.29 0 2.8 1.06 4.27t3.27 1.47m16.02 2.98h-4.2V92.34h2.57q.81 0 1.07.76l.27 1.29q.46-.51.96-.93.5-.43 1.07-.73.57-.31 1.22-.49.66-.17 1.44-.17 1.65 0 2.71.89t1.59 2.37q.41-.87 1.02-1.49t1.34-1.01q.74-.39 1.56-.58.82-.18 1.66-.18 1.44 0 2.56.44 1.13.44 1.89 1.29.77.85 1.17 2.07.4 1.23.4 2.81v11.1h-4.2v-11.1q0-1.67-.73-2.51-.74-.84-2.15-.84-.64 0-1.19.22-.56.22-.97.64-.42.41-.66 1.04t-.24 1.45v11.1h-4.21v-11.1q0-1.75-.71-2.55-.7-.8-2.06-.8-.92 0-1.71.45t-1.47 1.23zm33.49-4.5v-2.95q-1.82.09-3.06.32t-1.99.58q-.75.36-1.07.84-.33.47-.33 1.03 0 1.11.66 1.59.65.47 1.71.47 1.29 0 2.23-.47.95-.46 1.85-1.41m-8.88-9.17-.74-1.34q3-2.76 7.24-2.76 1.53 0 2.73.51 1.21.5 2.04 1.39.84.89 1.27 2.13t.43 2.72v11.02h-1.9q-.59 0-.92-.18-.32-.18-.51-.72l-.37-1.26q-.66.6-1.29 1.05t-1.31.75q-.68.31-1.46.47-.77.16-1.7.16-1.11 0-2.04-.3-.94-.29-1.62-.89-.68-.59-1.05-1.48-.38-.88-.38-2.05 0-.67.22-1.32.22-.66.73-1.25.5-.6 1.3-1.12.8-.53 1.96-.92t2.71-.64 3.54-.3v-1.02q0-1.75-.75-2.59t-2.16-.84q-1.02 0-1.69.24t-1.18.53q-.51.3-.93.54t-.93.24q-.44 0-.74-.23-.31-.23-.5-.54m22.73 13.94q-2.28 0-3.49-1.28-1.22-1.29-1.22-3.55v-9.74h-1.78q-.34 0-.58-.22t-.24-.66v-1.67l2.81-.46.88-4.76q.09-.34.32-.52.24-.19.62-.19h2.17v5.49h4.66v2.99h-4.66v9.45q0 .82.4 1.28t1.1.46q.39 0 .65-.09.27-.1.46-.2.2-.1.35-.2.15-.09.31-.09.18 0 .3.09.12.1.26.28l1.26 2.04q-.92.77-2.11 1.16t-2.47.39m14.55-17.98q1.94 0 3.53.62 1.59.63 2.72 1.79t1.74 2.82q.62 1.67.62 3.72 0 2.08-.62 3.74-.61 1.67-1.74 2.84-1.13 1.18-2.72 1.81t-3.53.63q-1.95 0-3.55-.63t-2.73-1.81q-1.13-1.17-1.75-2.84-.62-1.66-.62-3.74 0-2.05.62-3.72.62-1.66 1.75-2.82t2.73-1.79q1.6-.62 3.55-.62m0 14.73q2.18 0 3.23-1.46 1.04-1.46 1.04-4.28t-1.04-4.3q-1.05-1.48-3.23-1.48-2.21 0-3.27 1.49-1.06 1.48-1.06 4.29 0 2.8 1.06 4.27t3.27 1.47m15.53-13.41.25 1.97q.82-1.56 1.94-2.45 1.12-.9 2.65-.9 1.21 0 1.94.53l-.27 3.15q-.09.3-.25.43t-.43.13q-.26 0-.76-.09-.5-.08-.98-.08-.69 0-1.24.2-.54.21-.98.59-.43.38-.76.92-.33.55-.62 1.25v10.74h-4.2V92.34h2.46q.65 0 .91.23.25.23.34.82"/></svg>